<?xml version="1.0" ?><!DOCTYPE svg  PUBLIC '-//W3C//DTD SVG 1.1//EN'  'http://www.w3.org/Graphics/SVG/1.1/DTD/svg11.dtd'><svg enable-background="new 0 0 32 32" height="32px" version="1.1" viewBox="0 0 32 32" width="32px" xml:space="preserve" xmlns="http://www.w3.org/2000/svg" xmlns:xlink="http://www.w3.org/1999/xlink"><g id="Vimeo"><path d="M18.073,11.811c-0.049,0-0.1-0.007-0.149-0.023c-0.263-0.082-0.41-0.362-0.328-0.626   c1.502-4.81,4.415-7.194,8.685-7.042c1.459,0.04,2.604,0.495,3.398,1.353c0.971,1.045,1.41,2.691,1.306,4.892   c-0.012,0.276-0.243,0.491-0.522,0.476c-0.276-0.013-0.489-0.247-0.476-0.523c0.09-1.922-0.26-3.323-1.041-4.165   c-0.614-0.662-1.495-1-2.694-1.033c-3.808-0.114-6.33,1.951-7.7,6.34C18.483,11.674,18.286,11.811,18.073,11.811z" fill="#263238"/><path d="M17.489,20.942c-1.086,0-1.897-1.469-2.634-4.763c-0.225-0.887-0.619-3.111-1.172-6.595   c-0.335-2.087-1.033-3.404-2.075-3.911c-0.248-0.121-0.352-0.42-0.23-0.668c0.121-0.249,0.425-0.349,0.668-0.231   c1.353,0.659,2.235,2.224,2.626,4.653c0.682,4.303,1.005,5.921,1.156,6.521c0.883,3.949,1.63,3.994,1.661,3.994   c0.065,0,0.684-0.073,2.31-2.598c1.16-1.806,1.79-3.181,1.871-4.087c0.076-0.714-0.02-1.221-0.283-1.514   c-0.228-0.253-0.62-0.381-1.168-0.381c-0.276,0-0.5-0.224-0.5-0.5s0.224-0.5,0.5-0.5c0.843,0,1.486,0.24,1.912,0.713   c0.461,0.513,0.641,1.281,0.534,2.281c-0.097,1.075-0.76,2.56-2.025,4.53C18.895,20.595,18.039,20.942,17.489,20.942z" fill="#263238"/><path d="M14.563,29.885c-1.913,0-3.513-1.666-4.755-4.951l-2.355-8.537c-1.084-3.852-1.979-4.268-2.314-4.268   c-0.024,0.015-0.401,0.164-1.989,1.265c-0.218,0.15-0.515,0.106-0.679-0.103l-1.364-1.74c-0.164-0.21-0.136-0.511,0.065-0.686   c1.427-1.239,2.834-2.483,4.222-3.723c0.747-0.641,1.43-1.169,2.034-1.576c0.228-0.153,0.539-0.095,0.694,0.135   c0.154,0.229,0.094,0.54-0.136,0.694c-0.573,0.386-1.224,0.891-1.935,1.5c-1.268,1.133-2.558,2.275-3.865,3.414l0.781,0.997   c1.589-1.082,1.928-1.175,2.171-1.175c1.276,0,2.317,1.588,3.278,4.999l2.342,8.496c1.065,2.813,2.351,4.261,3.805,4.261   c2.559,0,5.795-2.49,9.617-7.401c3.732-4.744,5.685-8.5,5.806-11.166c0.012-0.275,0.198-0.498,0.521-0.477   c0.276,0.013,0.489,0.246,0.477,0.522c-0.131,2.919-2.1,6.758-6.017,11.737C20.892,27.338,17.487,29.885,14.563,29.885z" fill="#263238"/><g><circle cx="9.999" cy="5" fill="#263238" r="0.5"/></g><g><circle cx="9.999" cy="5" fill="#263238" r="0.5"/></g></g></svg>