<?xml version="1.0" ?><!DOCTYPE svg  PUBLIC '-//W3C//DTD SVG 1.1//EN'  'http://www.w3.org/Graphics/SVG/1.1/DTD/svg11.dtd'><svg enable-background="new 0 0 32 32" height="32px" version="1.1" viewBox="0 0 32 32" width="32px" xml:space="preserve" xmlns="http://www.w3.org/2000/svg" xmlns:xlink="http://www.w3.org/1999/xlink"><g id="Blogger"><path d="M16.929,31.003c-3.66,0-7.767-0.059-8.334-0.161c-2.137-0.386-4.261-1.742-5.68-3.625   c-0.739-0.98-1.108-1.692-1.464-2.821c-0.43-1.365-0.479-2.374-0.438-8.992c0.034-5.383,0.06-6.215,0.212-6.844   c0.185-0.759,0.45-1.488,0.787-2.167c0.123-0.248,0.424-0.349,0.67-0.226c0.248,0.123,0.349,0.423,0.226,0.67   C2.603,7.45,2.364,8.109,2.196,8.797c-0.125,0.512-0.152,1.501-0.184,6.613c-0.041,6.479,0.003,7.453,0.392,8.685   c0.321,1.019,0.64,1.631,1.309,2.521c1.272,1.688,3.163,2.9,5.059,3.243c0.914,0.166,12.675,0.205,13.829,0.047   c1.996-0.271,3.542-1.063,5.012-2.565c1.056-1.079,1.721-2.253,2.154-3.809c0.172-0.618,0.188-0.984,0.222-4.892   c0.01-1.158,0.037-4.234-0.063-4.687c-0.093-0.422-0.351-0.756-0.558-0.869c-0.064-0.012-0.65-0.081-1.401-0.115   c-1.292-0.057-1.552-0.078-2.087-0.392c-0.91-0.533-1.077-1.207-1.079-2.342c-0.003-2-0.847-3.871-2.507-5.563   c-1.196-1.219-2.515-2.035-4.031-2.495c-0.351-0.107-1.556-0.139-3.959-0.167C9.886,1.955,8.931,2.042,7.479,2.621   c-0.723,0.288-1.4,0.667-2.013,1.126c-0.22,0.166-0.534,0.122-0.7-0.1c-0.166-0.221-0.121-0.535,0.1-0.7   c0.684-0.513,1.438-0.935,2.243-1.255c1.61-0.642,2.619-0.738,7.208-0.684c3,0.035,3.792,0.075,4.238,0.21   c1.681,0.51,3.138,1.411,4.455,2.752c1.85,1.885,2.79,3.992,2.793,6.262c0.002,1.042,0.162,1.234,0.585,1.481   c0.3,0.176,0.338,0.199,1.626,0.256c0.57,0.025,1.567,0.09,1.834,0.235c0.496,0.27,0.911,0.871,1.057,1.533   c0.077,0.348,0.118,1.29,0.086,4.91c-0.035,4.071-0.052,4.408-0.259,5.151c-0.481,1.727-1.223,3.035-2.403,4.24   c-1.615,1.65-3.392,2.558-5.592,2.857C22.198,30.97,19.691,31.003,16.929,31.003z M21,23H11c-1.103,0-2-0.897-2-2s0.897-2,2-2h10   c1.103,0,2,0.897,2,2S22.103,23,21,23z M11,20c-0.551,0-1,0.449-1,1s0.449,1,1,1h10c0.551,0,1-0.449,1-1s-0.449-1-1-1H11z M16,13   h-5c-1.103,0-2-0.897-2-2s0.897-2,2-2h5c1.103,0,2,0.897,2,2S17.103,13,16,13z M11,10c-0.551,0-1,0.449-1,1s0.449,1,1,1h5   c0.551,0,1-0.449,1-1s-0.449-1-1-1H11z" fill="#263238"/><circle cx="3.5" cy="5" fill="#263238" r="0.5"/></g></svg>