<?xml version="1.0" ?><!DOCTYPE svg  PUBLIC '-//W3C//DTD SVG 1.1//EN'  'http://www.w3.org/Graphics/SVG/1.1/DTD/svg11.dtd'><svg enable-background="new 0 0 32 32" height="32px" id="_x3C_Layer_x3E_" version="1.1" viewBox="0 0 32 32" width="32px" xml:space="preserve" xmlns="http://www.w3.org/2000/svg" xmlns:xlink="http://www.w3.org/1999/xlink"><g><g id="Google_1_"><g><path d="M16.33,31c-5.777,0-10.942-3.203-13.481-8.358C1.828,20.565,1.31,18.331,1.31,16     c0-2.333,0.519-4.569,1.54-6.644C5.389,4.202,10.553,1,16.33,1c3.66,0,7.082,1.296,9.898,3.748     c0.105,0.091,0.167,0.221,0.172,0.36c0.004,0.139-0.049,0.273-0.146,0.371l-4.225,4.218c-0.182,0.181-0.472,0.195-0.67,0.033     c-1.439-1.177-3.18-1.799-5.029-1.799c-3.497,0-6.58,2.224-7.67,5.533C8.389,14.291,8.25,15.144,8.25,16     c0,0.854,0.137,1.705,0.408,2.53c1.092,3.312,4.174,5.538,7.672,5.538c1.744,0,3.318-0.412,4.556-1.191     c0.854-0.539,1.534-1.238,2.021-2.081c0.139-0.239,0.443-0.321,0.684-0.183c0.239,0.139,0.321,0.444,0.184,0.684     c-0.57,0.984-1.361,1.8-2.354,2.426c-1.397,0.88-3.156,1.345-5.089,1.345c-3.93,0-7.395-2.502-8.622-6.226     C7.404,17.916,7.25,16.96,7.25,16c0-0.963,0.154-1.921,0.461-2.849c1.225-3.72,4.689-6.22,8.619-6.22     c1.933,0,3.758,0.602,5.305,1.746l3.526-3.521C22.611,3.089,19.568,2,16.33,2C10.938,2,6.115,4.988,3.747,9.797     C2.793,11.734,2.31,13.821,2.31,16c0,2.176,0.483,4.263,1.437,6.2C6.115,27.011,10.938,30,16.33,30     c3.465,0,6.703-1.236,9.121-3.48c2.773-2.575,4.239-6.212,4.239-10.52c0-0.601-0.071-1.272-0.212-2H17v4.466h7.118     c0.276,0,0.5,0.224,0.5,0.5s-0.224,0.5-0.5,0.5H16.5c-0.276,0-0.5-0.224-0.5-0.5V13.5c0-0.276,0.224-0.5,0.5-0.5h13.385     c0.234,0,0.438,0.163,0.488,0.392c0.211,0.95,0.317,1.828,0.317,2.608c0,4.593-1.577,8.484-4.56,11.253     C23.528,29.669,20.048,31,16.33,31z" fill="#263238"/></g><g id="Google"><g><path d="M4.288,24.019c-0.15,0-0.299-0.067-0.397-0.196c-0.168-0.219-0.126-0.533,0.093-0.701l4.5-3.444      c0.219-0.167,0.534-0.125,0.701,0.093c0.168,0.219,0.126,0.533-0.093,0.701l-4.5,3.444C4.5,23.985,4.394,24.019,4.288,24.019z" fill="#263238"/></g><g><path d="M8.104,14.09c-0.107,0-0.216-0.035-0.307-0.106l-4.917-3.84C2.662,9.974,2.624,9.66,2.793,9.442      c0.169-0.218,0.484-0.257,0.702-0.086l4.917,3.84c0.218,0.17,0.256,0.484,0.086,0.702C8.4,14.024,8.253,14.09,8.104,14.09z" fill="#263238"/></g><g><path d="M25.585,27.559c-0.107,0-0.215-0.034-0.306-0.105l-4.682-3.629c-0.218-0.169-0.258-0.483-0.089-0.701      c0.169-0.218,0.484-0.258,0.701-0.089l4.682,3.629c0.218,0.169,0.258,0.483,0.089,0.701      C25.882,27.493,25.734,27.559,25.585,27.559z" fill="#263238"/></g></g></g></g></svg>