<?xml version="1.0" ?><!DOCTYPE svg  PUBLIC '-//W3C//DTD SVG 1.1//EN'  'http://www.w3.org/Graphics/SVG/1.1/DTD/svg11.dtd'><svg enable-background="new 0 0 32 32" height="32px" version="1.1" viewBox="0 0 32 32" width="32px" xml:space="preserve" xmlns="http://www.w3.org/2000/svg" xmlns:xlink="http://www.w3.org/1999/xlink"><g id="PayPal_1_"><g id="PayPal"><path d="M15.024,31h-4.69c-0.345,0-0.671-0.15-0.895-0.413c-0.224-0.262-0.321-0.608-0.268-0.948l0.086-0.543    c0.043-0.273,0.302-0.46,0.572-0.416c0.272,0.043,0.459,0.299,0.416,0.572l-0.086,0.544c-0.012,0.07,0.021,0.119,0.04,0.143    C10.22,29.961,10.264,30,10.334,30h4.69c0.311,0,0.571-0.223,0.62-0.53l0.049-0.255l0.939-5.908    c0.125-0.785,0.801-1.362,1.606-1.362h0.702c4.933,0,7.762-2.218,8.649-6.78c0.373-1.916,0.211-3.437-0.481-4.521    c-0.148-0.233-0.08-0.542,0.152-0.69c0.232-0.148,0.542-0.082,0.691,0.152c0.835,1.308,1.043,3.074,0.62,5.25    c-0.98,5.036-4.221,7.589-9.632,7.589h-0.702c-0.311,0-0.571,0.223-0.62,0.53l-0.059,0.321l-0.931,5.846    C16.506,30.422,15.83,31,15.024,31z" fill="#263238"/><path d="M10.05,27.782H4.485c-0.373,0-0.726-0.163-0.968-0.446c-0.242-0.283-0.348-0.658-0.29-1.026L6.172,7.637    c0.043-0.273,0.306-0.458,0.572-0.417C7.017,7.264,7.203,7.52,7.16,7.793L4.216,26.465c-0.018,0.109,0.031,0.186,0.063,0.221    c0.03,0.036,0.098,0.096,0.207,0.096h5.137l1.332-8.44c0.017-0.106,0.066-0.199,0.136-0.271c0.299-0.58,0.898-0.962,1.584-0.962    h2.645c5.679,0,8.937-2.554,9.958-7.809c0.034-0.174,0.063-0.343,0.09-0.51c0.331-2.118,0.011-3.501-1.105-4.773    C23.086,2.678,20.899,2,17.762,2H8.748C8.357,2,8.03,2.28,7.969,2.667L7.844,3.456C7.8,3.729,7.538,3.914,7.271,3.872    C6.999,3.829,6.813,3.572,6.855,3.3L6.98,2.51C7.12,1.635,7.863,1,8.748,1h9.014c3.438,0,5.878,0.793,7.251,2.356    c1.318,1.502,1.719,3.174,1.341,5.588c-0.027,0.178-0.059,0.359-0.095,0.546c-1.113,5.718-4.794,8.617-10.94,8.617h-2.645    c-0.388,0-0.714,0.28-0.774,0.666c-0.002,0.01-0.004,0.019-0.006,0.028l-1.35,8.557C10.505,27.603,10.296,27.782,10.05,27.782z" fill="#263238"/></g><g><g><g><g><g><g><path d="M7.5,5.5C7.5,5.775,7.275,6,7,6l0,0C6.725,6,6.5,5.775,6.5,5.5l0,0C6.5,5.225,6.725,5,7,5l0,0         C7.275,5,7.5,5.225,7.5,5.5L7.5,5.5z" fill="#263238"/></g></g></g></g></g></g></g></svg>