<?xml version="1.0" ?><!DOCTYPE svg  PUBLIC '-//W3C//DTD SVG 1.1//EN'  'http://www.w3.org/Graphics/SVG/1.1/DTD/svg11.dtd'><svg enable-background="new 0 0 32 32" height="32px" version="1.1" viewBox="0 0 32 32" width="32px" xml:space="preserve" xmlns="http://www.w3.org/2000/svg" xmlns:xlink="http://www.w3.org/1999/xlink"><g id="Vine"><path d="M15.581,30.998c-0.116,0-0.229-0.01-0.34-0.031c-0.034-0.007-0.067-0.017-0.098-0.03   c-1.267-0.268-2.319-1.237-3.549-2.467C7.362,24.496,3.329,14.149,2.798,5.888C2.789,5.75,2.837,5.614,2.932,5.514   c0.095-0.101,0.227-0.158,0.365-0.158h4.839c0.249,0,0.46,0.183,0.495,0.429c1.304,9.135,3.374,14.748,7.099,19.182   c1.234-1.243,2.464-2.876,3.662-4.864c0.142-0.237,0.449-0.313,0.687-0.17c0.236,0.143,0.313,0.45,0.17,0.687   c-1.366,2.267-2.782,4.098-4.208,5.441c-0.098,0.093-0.221,0.147-0.367,0.136c-0.136-0.006-0.263-0.068-0.352-0.17   c-4.02-4.587-6.239-10.306-7.618-19.671H3.834c0.649,7.953,4.458,17.642,8.455,21.397c1.364,1.363,2.227,2.078,3.184,2.229   c0.026,0.004,0.052,0.01,0.077,0.018c2.469,0.186,8.05-7.84,9.185-10.489c0.076-0.179,0.25-0.297,0.443-0.303   c1.681-0.055,1.871-0.061,2.964-0.318v-2.487c-2.157,0.427-4.071,0.093-5.568-0.975c-1.754-1.251-2.799-3.418-3.021-6.268   c-0.001-1.826,0.644-3.785,2.456-3.925c0.763,0.018,1.358,0.326,1.772,0.891c0.984,1.34,0.766,3.837,0.38,5.189   c-0.148,0.465-0.188,0.662-0.192,0.744c0.013-0.015,0.064,0.017,0.108,0.042c0.108,0.063,0.235,0.139,0.381,0.245   c0.471,0.336,1.13,0.574,1.805,0.651c0.372,0.041,0.739,0.036,1.093-0.019c0.56-1.631,0.792-2.922,0.844-4.66   C28.169,6.437,27.536,2,22.412,2c-2.308,0.066-4.126,0.989-5.244,2.669c-1.48,2.225-1.607,5.518-0.338,8.81   c0.629,1.625,2.225,4.491,5.841,5.428c0.267,0.069,0.428,0.342,0.358,0.609c-0.069,0.267-0.345,0.43-0.609,0.358   c-4.199-1.087-5.96-4.583-6.523-6.036c-1.385-3.595-1.221-7.23,0.439-9.725C17.641,2.153,19.737,1.076,22.398,1   c4.184,0,6.722,2.739,6.805,7.327c-0.059,1.946-0.338,3.414-0.997,5.258c-0.057,0.161-0.193,0.282-0.36,0.32   c-0.543,0.123-1.114,0.154-1.693,0.087c-0.852-0.097-1.66-0.393-2.277-0.833c-0.118-0.085-0.218-0.144-0.302-0.193   c-0.758-0.445-0.703-0.885-0.368-1.938c0.329-1.152,0.488-3.332-0.229-4.309c-0.234-0.319-0.534-0.473-0.941-0.484   c-1.44,0.113-1.483,2.604-1.483,2.888c0.196,2.506,1.097,4.418,2.603,5.492c1.392,0.993,3.245,1.227,5.362,0.678   c0.149-0.041,0.309-0.006,0.431,0.088s0.194,0.241,0.194,0.396v3.509c0,0.231-0.159,0.432-0.383,0.486   c-1.473,0.353-1.648,0.375-3.242,0.427C24.333,22.599,18.899,30.998,15.581,30.998z" fill="#263238"/></g></svg>