<?xml version="1.0" ?><!DOCTYPE svg  PUBLIC '-//W3C//DTD SVG 1.1//EN'  'http://www.w3.org/Graphics/SVG/1.1/DTD/svg11.dtd'><svg enable-background="new 0 0 32 32" height="32px" version="1.1" viewBox="0 0 32 32" width="32px" xml:space="preserve" xmlns="http://www.w3.org/2000/svg" xmlns:xlink="http://www.w3.org/1999/xlink"><g id="xing"><path d="M8.604,21.997H4.392c-0.407,0-0.771-0.199-0.973-0.532c-0.206-0.339-0.214-0.761-0.021-1.131l3.312-5.82   c0.136-0.241,0.441-0.324,0.682-0.188s0.324,0.442,0.188,0.682l-3.303,5.804c-0.021,0.042-0.025,0.096-0.002,0.134   c0.025,0.042,0.078,0.051,0.118,0.051h4.213c0.095,0,0.382,0,0.715-0.563l2.72-4.788c0.776-1.367,1.261-2.218,1.484-2.615   l-2.731-4.489c-0.286-0.493-0.559-0.549-0.738-0.549H5.841c-0.104,0-0.151,0.03-0.158,0.038c0,0.005,0.002,0.053,0.046,0.133   l2.82,4.595c0.087,0.141,0.108,0.322,0.044,0.474c-0.165,0.384-0.805,0.347-0.94-0.022L4.865,8.666   C4.64,8.258,4.629,7.848,4.822,7.52c0.195-0.331,0.576-0.528,1.019-0.528h4.213c0.454,0,1.1,0.18,1.598,1.039l2.878,4.729   c0.093,0.152,0.098,0.342,0.013,0.499c-0.07,0.13-0.588,1.041-1.634,2.881l-2.724,4.795C9.665,21.813,9.039,21.997,8.604,21.997z" fill="#263238"/><path d="M24.393,31h-4.219c-0.476,0-1.14-0.183-1.605-1.054l-5.979-10.9c-0.133-0.242-0.044-0.546,0.198-0.679   c0.239-0.132,0.546-0.045,0.679,0.198l5.98,10.905c0.252,0.47,0.521,0.53,0.727,0.53h4.219c0.102,0,0.144-0.028,0.148-0.035   c0.003-0.006,0.01-0.054-0.036-0.138l-5.929-10.781c-0.04-0.074-0.062-0.156-0.062-0.241c0-0.087,0.022-0.191,0.065-0.267   l9.319-16.374c0.029-0.058,0.029-0.111,0.021-0.126C27.91,2.024,27.865,2,27.784,2h-4.252c-0.169,0-0.425,0.056-0.698,0.537   l-8.368,14.749c-0.136,0.24-0.443,0.323-0.682,0.188c-0.24-0.136-0.324-0.441-0.188-0.682l8.368-14.749   C22.454,1.181,23.087,1,23.532,1h4.252c0.421,0,0.791,0.193,0.989,0.518c0.201,0.33,0.203,0.739,0.005,1.124L19.582,18.8   l5.8,10.547c0.207,0.378,0.214,0.8,0.02,1.128C25.204,30.809,24.836,31,24.393,31z" fill="#263238"/></g></svg>